PathFileType	4	(X/Y/Z)	Kaydara																																																																																																																																																																																																																												
DataRate	CameraRate	NumFrames	NumMarkers	Units	OrigDataRate	OrigDataStartFrame	OrigNumFrames																																																																																																																																																																																																																								
60	60	4	74	mm	60	2222	226																																																																																																																																																																																																																								
Frame#	Time	N_lasi			N_rasi			N_rpsi			N_lpsi			N_fneck			N_bneck			N_fhead			N_rhead			N_lhead			N_rshld			N_relbtop			N_relbext			N_relblow			N_rwrext			N_rwrtop			N_rwrlow			N_lshld			N_lelblow			N_lelbtop			N_lwrext			N_lwrtop			N_lwrlow			N_rtopleg			N_ltopleg			N_rkneefr			N_rkneebk			N_rkneeis			N_lkneefr			N_lknssbk			N_lkneeis			N_rankfr			N_rankis			N_rankbk			N_lankfr			N_lankbk			N_lankis			D_lasi			D_rasi			D_lpsi			D_fneck			D_bneck			D_fhead			D_rhead			D_lhead			D_rshld			D_relbtop			D_relbext			D_relblow			D_rwrext			D_rwrtop			D_rwrlow			D_lshld			D_lelbext			D_lelblow			D_lelbtop			D_lwrext			D_lwrtop			D_lwrlow			D_rtopleg			D_ltopleg			D_rkneefr			D_rkneebk			D_rkneeis			D_lkneefr			D_lknssbk			D_lkneeis			D_rankfr			D_rankis			D_rankbk			D_lankfr			D_lankbk			D_lankis			D_rpsi			N_lelbext		
		X1	Y1	Z1	X2	Y2	Z2	X3	Y3	Z3	X4	Y4	Z4	X5	Y5	Z5	X6	Y6	Z6	X7	Y7	Z7	X8	Y8	Z8	X9	Y9	Z9	X10	Y10	Z10	X11	Y11	Z11	X12	Y12	Z12	X13	Y13	Z13	X14	Y14	Z14	X15	Y15	Z15	X16	Y16	Z16	X17	Y17	Z17	X18	Y18	Z18	X19	Y19	Z19	X20	Y20	Z20	X21	Y21	Z21	X22	Y22	Z22	X23	Y23	Z23	X24	Y24	Z24	X25	Y25	Z25	X26	Y26	Z26	X27	Y27	Z27	X28	Y28	Z28	X29	Y29	Z29	X30	Y30	Z30	X31	Y31	Z31	X32	Y32	Z32	X33	Y33	Z33	X34	Y34	Z34	X35	Y35	Z35	X36	Y36	Z36	X37	Y37	Z37	X38	Y38	Z38	X39	Y39	Z39	X40	Y40	Z40	X41	Y41	Z41	X42	Y42	Z42	X43	Y43	Z43	X44	Y44	Z44	X45	Y45	Z45	X46	Y46	Z46	X47	Y47	Z47	X48	Y48	Z48	X49	Y49	Z49	X50	Y50	Z50	X51	Y51	Z51	X52	Y52	Z52	X53	Y53	Z53	X54	Y54	Z54	X55	Y55	Z55	X56	Y56	Z56	X57	Y57	Z57	X58	Y58	Z58	X59	Y59	Z59	X60	Y60	Z60	X61	Y61	Z61	X62	Y62	Z62	X63	Y63	Z63	X64	Y64	Z64	X65	Y65	Z65	X66	Y66	Z66	X67	Y67	Z67	X68	Y68	Z68	X69	Y69	Z69	X70	Y70	Z70	X71	Y71	Z71	X72	Y72	Z72	X73	Y73	Z73	X74	Y74	Z74
																																																																																																																																																																																																																															
1	37.017	-520.8152	1265.74242	-61.12155	-513.90888	1279.76173	-290.84448	-254.79801	1240.66612	-349.79145	-271.18567	1229.37111	3.69172	-385.25158	1608.228	-166.76306	-222.75837	1662.00531	-144.8604	-453.11546	1796.52267	-175.74514	-255.97544	1775.30762	-211.08562	-320.96222	1774.70581	-70.10207	-235.33756	1653.92487	-284.43142	-339.31782	1775.70465	-493.12817	-419.10671	1748.90656	-458.3144	-345.81825	1811.72226	-408.50727	-488.8549	2077.44583	-582.21092	-493.72974	2091.93573	-536.61011	-531.82182	2069.64554	-517.14485	-230.53858	1623.35968	-8.77688	-315.0679	1773.27728	153.11397	-318.66806	1722.12601	228.661	-437.812	2039.34235	315.44703	-424.29832	2058.82889	274.27542	-467.94769	2040.41885	248.85927	-415.25513	1080.71129	-430.60139	-366.88732	1050.21179	53.81716	-431.00983	561.39179	-252.38445	-326.24702	579.42516	-322.24483	-367.51755	564.31831	-160.3056	-377.75352	539.4453	-92.4365	-249.90149	556.28601	-36.93938	-256.1643	547.71637	-186.73557	-297.59649	140.25538	-268.93021	-299.10168	154.77785	-188.97825	-217.66239	142.03123	-214.45765	-330.69279	193.46081	-113.26833	-256.18296	186.02278	-73.20699	-262.28296	194.52278	-160.80699	-470.03868	1044.32739	1739.79095	-438.23311	1064.29382	1453.4848	-273.39493	1134.0773	1738.81302	-412.7935	1570.83847	1578.03772	-269.67859	1596.66321	1585.71777	-454.83601	1774.89761	1570.5925	-297.11224	1724.19067	1487.54837	-297.08969	1736.79657	1643.72192	-301.26053	1596.36673	1498.59589	-418.72604	1746.72043	1294.56635	-450.70267	1755.20584	1360.71793	-350.06672	1769.16046	1339.43832	-424.35848	2025.29312	1334.75418	-377.03648	2016.80283	1365.10422	-410.76431	2005.10941	1407.24655	-319.78062	1585.24185	1761.21582	-420.49507	1553.12668	2027.51526	-327.19654	1604.24332	2009.62753	-343.13061	1530.97778	2037.8006	-361.13716	1640.32227	2270.75775	-389.13776	1671.32095	2257.45087	-432.33414	1645.52124	2248.75076	-346.58077	1005.56534	1405.74982	-327.01141	1010.95726	1805.44449	-379.0942	454.82845	1449.23981	-280.22909	492.00111	1420.75043	-285.9234	459.97166	1541.75446	-359.20036	448.03047	1769.91806	-246.45529	486.75049	1784.75494	-318.98279	443.85319	1677.89337	-325.07584	130.5047	1417.57965	-295.51105	127.68246	1482.67426	-244.80364	128.99256	1417.5293	-323.47908	135.22522	1792.45544	-250.82895	125.21197	1805.81207	-294.67831	124.24417	1732.95425	-251.56239	1149.84375	1521.62659	-396.48331	1714.21783	181.25458
2	37.033	-520.76393	1265.57037	-61.15694	-514.20288	1279.52324	-290.79859	-255.18351	1240.37308	-350.14648	-270.97748	1229.12125	3.18927	-385.25158	1608.228	-166.76306	-222.75837	1662.00531	-144.8604	-453.50166	1796.40289	-175.91816	-255.68928	1775.36224	-212.33877	-321.99699	1774.74579	-69.84521	-236.23226	1653.97522	-286.09232	-338.8205	1774.06006	-496.4233	-418.87657	1747.57553	-461.9791	-346.07311	1810.92865	-412.20818	-488.32977	2073.82294	-591.2331	-494.08798	2088.77075	-545.86044	-532.26345	2066.54114	-526.87279	-230.57144	1623.30597	-8.60032	-314.44817	1771.91422	155.23399	-317.15935	1720.67657	231.2351	-436.45538	2035.61996	322.50549	-423.49251	2055.73486	281.31491	-467.35886	2037.42447	256.31205	-415.74036	1080.354	-430.67406	-366.71329	1049.88983	53.57174	-431.24126	561.34308	-252.45907	-326.51123	579.37031	-322.36153	-367.63718	564.32518	-160.37342	-377.80029	539.48746	-92.55235	-249.91306	556.31588	-37.15576	-256.31542	547.71339	-186.97329	-297.63212	140.2448	-268.91344	-299.10036	154.75785	-189.04617	-217.71887	142.03029	-214.48128	-330.72376	193.48137	-113.30963	-256.18979	186.06195	-73.30818	-262.28979	194.56195	-160.90818	-470.0787	1044.35471	1739.79462	-438.28056	1064.26331	1453.45352	-273.4392	1134.04564	1738.92929	-412.58701	1570.83099	1578.36227	-269.67363	1596.62781	1586.24664	-454.63425	1774.96567	1570.81589	-297.05303	1724.15833	1488.5968	-296.95717	1736.71188	1644.05029	-300.76031	1596.41846	1499.03397	-418.60767	1746.42639	1294.69025	-450.68405	1754.79996	1360.69382	-350.02037	1768.95721	1339.56879	-425.33192	2024.84756	1335.33432	-377.93388	2016.65222	1365.55542	-411.70528	2004.66888	1407.92068	-320.02884	1585.21591	1761.62018	-421.32675	1553.08823	2027.75803	-327.96089	1603.86932	2009.79935	-346.19347	1530.08194	2034.21951	-361.87233	1639.22211	2271.64703	-389.67049	1670.41214	2258.22983	-432.83352	1644.64478	2249.56009	-346.64948	1005.52834	1405.79102	-327.21252	1010.81551	1805.17349	-379.21261	454.84531	1449.24362	-280.36402	491.96739	1420.84915	-286.06211	459.91451	1541.78253	-359.30656	448.03696	1770.04868	-246.51825	486.80622	1784.81094	-319.07473	443.87321	1677.95288	-325.11974	130.45815	1417.64389	-295.51985	127.70767	1482.71027	-244.83501	129.01233	1417.57584	-323.52669	135.21097	1792.46597	-250.86239	125.20725	1805.8429	-294.73419	124.26294	1732.99011	-251.6618	1149.81377	1521.8071	-395.4604	1712.51312	183.63605
3	37.05	-520.75603	1265.37704	-61.17002	-514.47197	1279.26552	-290.77641	-255.53396	1240.09209	-350.47771	-270.80923	1228.83392	2.70472	-385.25158	1608.228	-166.76306	-222.75837	1662.00531	-144.8604	-454.13715	1796.29425	-176.1055	-256.10603	1775.46677	-213.79017	-321.85524	1774.89532	-70.59049	-236.95644	1654.05212	-287.81895	-338.07125	1772.56088	-499.65965	-418.44875	1746.24496	-466.01601	-346.37753	1810.18066	-415.95982	-487.46479	2069.9881	-600.67024	-494.24774	2085.52689	-555.62252	-532.60147	2063.15826	-537.05032	-230.61289	1623.32123	-8.49632	-313.85889	1770.65231	157.44755	-315.38469	1718.25073	232.22029	-434.74369	2031.54022	329.93732	-422.52789	2052.397	288.99048	-466.50288	2034.26468	264.13652	-416.33007	1079.96109	-430.84946	-366.59481	1049.54926	53.31531	-431.49342	561.29234	-252.52815	-326.79836	579.3153	-322.49882	-367.68787	564.28516	-160.60225	-377.82425	539.50584	-92.67509	-249.93418	556.34312	-37.41651	-256.49153	547.68013	-187.17319	-297.71418	140.18887	-269.24122	-299.10223	154.75015	-189.12863	-217.26759	142.22038	-214.80545	-330.74673	193.48724	-113.38666	-256.23751	186.08782	-73.44707	-262.33751	194.58782	-161.04707	-470.13474	1044.33151	1739.81079	-438.23624	1064.17213	1453.53928	-273.41955	1133.99292	1739.12888	-412.46437	1570.77866	1578.61374	-269.5904	1596.63589	1586.80191	-454.48925	1775.04517	1571.05148	-296.67347	1724.12033	1487.76428	-296.86604	1736.7012	1644.38782	-300.31765	1596.38351	1499.26331	-418.48206	1746.10321	1294.6257	-450.72662	1754.39651	1360.6076	-350.09136	1768.8092	1339.78287	-426.24382	2024.53369	1335.4718	-378.97118	2016.43661	1365.78323	-412.74723	2004.25629	1408.18604	-320.37003	1585.22537	1761.93741	-422.32861	1552.94632	2028.05374	-328.79124	1603.60153	2010.46204	-347.92305	1529.61502	2033.39813	-362.68375	1638.35342	2271.98975	-390.39581	1669.48593	2258.80035	-433.69377	1644.00101	2250.17563	-346.62834	1005.47462	1405.84778	-327.27264	1010.88112	1805.39825	-379.3224	454.83185	1449.30862	-280.45444	491.93825	1420.9549	-286.14143	459.90356	1541.8866	-359.40193	448.02761	1770.0737	-246.60984	486.81168	1784.91104	-319.23279	443.9048	1678.02628	-325.15396	130.45815	1417.68311	-295.59166	127.64443	1482.71896	-244.85538	129.01565	1417.60513	-323.54763	135.15871	1792.53815	-250.92442	125.25582	1805.89859	-294.74443	124.286	1733.00186	-251.6699	1149.75723	1522.03079	-394.35234	1710.8725	186.04685
4	37.067	-520.66418	1265.08835	-61.15366	-514.76967	1278.97354	-290.71072	-255.90921	1239.8098	-350.88192	-270.58432	1228.63403	2.23143	-385.25158	1608.228	-166.76306	-222.75837	1662.00531	-144.8604	-454.67514	1796.1937	-176.29633	-256.20798	1775.63934	-213.89589	-322.12364	1775.11017	-71.22619	-237.52213	1654.05121	-289.36615	-337.16778	1771.13434	-502.87216	-417.93392	1744.83673	-470.10098	-346.67404	1809.36737	-419.61895	-486.16768	2065.97076	-610.33245	-494.28665	2081.84845	-565.7616	-532.79884	2059.43359	-547.78435	-230.7258	1623.39081	-8.45019	-313.12189	1769.49951	159.67016	-314.37595	1716.32553	233.03516	-432.77336	2027.24655	337.86961	-421.19358	2048.86932	297.13196	-465.38605	2031.04523	272.53016	-416.80016	1079.47556	-431.00517	-366.45	1049.18114	52.96745	-431.71944	561.20411	-252.67971	-327.06657	579.27299	-322.72114	-367.7549	564.23683	-160.84545	-377.85709	539.529	-92.80856	-249.98936	556.37764	-37.66324	-256.65524	547.64515	-187.36586	-297.70624	140.17369	-269.36703	-299.10879	154.71296	-189.25476	-217.2925	142.21205	-214.89359	-330.7885	193.47198	-113.47916	-256.23951	186.09964	-73.62074	-262.33951	194.59964	-161.22074	-470.23193	1044.31274	1739.84512	-438.1274	1064.11392	1453.56812	-273.53857	1134.01566	1739.46594	-412.39689	1570.80307	1578.79242	-269.57081	1596.66885	1587.29218	-454.36275	1775.05829	1571.14288	-296.45245	1724.13651	1488.48724	-296.7959	1736.68381	1644.81232	-300.09796	1596.34506	1499.67987	-418.33138	1745.90271	1294.758	-451.00941	1753.97781	1360.46051	-350.23842	1768.74756	1340.04929	-427.23965	2024.17984	1335.32089	-380.10574	2016.36993	1365.97015	-414.13425	2004.00177	1407.97546	-320.89161	1585.26993	1762.58942	-422.80464	1552.45163	2028.32916	-329.35204	1603.3255	2010.97885	-348.23013	1529.32571	2033.87924	-363.54061	1637.51221	2272.66205	-391.21872	1668.50494	2259.41238	-434.0686	1642.63489	2250.89508	-346.54106	1005.4538	1406.01822	-327.34711	1010.95024	1805.97382	-379.34467	454.81964	1449.36783	-280.49622	491.97304	1421.08047	-286.25034	459.86244	1541.93802	-359.50745	448.02456	1770.19196	-246.72401	486.84803	1785.04486	-319.3079	443.91945	1678.08731	-325.16563	130.4616	1417.70645	-295.66141	127.62074	1482.68463	-244.88644	129.01621	1417.64725	-323.54599	135.15724	1792.61688	-251.03836	125.239	1805.85022	-294.79101	124.32683	1733.0455	-251.6696	1149.71779	1522.27753	-393.20709	1709.21371	188.57555
